<?xml version="1.0" standalone="no"?>
<!DOCTYPE svg PUBLIC "-//W3C//DTD SVG 20010904//EN"
 "http://www.w3.org/TR/2001/REC-SVG-20010904/DTD/svg10.dtd">
<svg version="1.0" xmlns="http://www.w3.org/2000/svg"
 width="947.000000pt" height="943.000000pt" viewBox="0 0 947.000000 943.000000"
 preserveAspectRatio="xMidYMid meet">

<g transform="translate(0.000000,943.000000) scale(0.100000,-0.100000)"
fill="#000000" stroke="none">
<path d="M0 8760 l0 -70 4735 0 4735 0 0 70 0 70 -4735 0 -4735 0 0 -70z"/>
<path d="M0 8505 l0 -35 4735 0 4735 0 0 35 0 35 -4735 0 -4735 0 0 -35z"/>
<path d="M8200 6701 c-46 -15 -105 -49 -126 -73 -59 -64 -81 -181 -49 -265 81
-220 417 -216 479 5 20 72 20 95 0 161 -18 63 -66 119 -128 150 -50 24 -136
35 -176 22z"/>
<path d="M2930 6676 c-95 -24 -143 -45 -203 -90 -147 -110 -226 -292 -213
-491 15 -253 159 -426 406 -490 99 -26 243 -16 335 22 278 115 418 382 346
658 -68 262 -234 392 -511 401 -66 2 -125 -2 -160 -10z m258 -297 c197 -98
188 -392 -13 -485 -92 -43 -220 -27 -298 37 -62 51 -82 100 -82 199 0 107 27
166 101 223 59 45 89 55 170 56 49 1 73 -5 122 -30z"/>
<path d="M6372 6669 c-98 -25 -165 -62 -234 -131 -102 -102 -158 -245 -158
-404 1 -253 117 -428 340 -509 90 -33 225 -44 313 -25 143 29 303 144 377 269
52 89 72 164 72 272 -1 156 -53 299 -145 397 -123 129 -360 184 -565 131z
m250 -275 c61 -20 121 -73 148 -131 34 -71 33 -180 -2 -248 -33 -63 -59 -87
-128 -119 -75 -35 -164 -36 -238 -1 -100 46 -142 116 -141 235 0 125 46 202
152 255 60 30 139 33 209 9z"/>
<path d="M529 6447 c-19 -12 -44 -42 -57 -67 l-22 -45 2 -1345 c3 -1336 3
-1345 24 -1380 33 -57 80 -83 140 -78 64 5 110 37 135 92 18 39 19 96 19 1376
l0 1336 -22 44 c-41 81 -149 114 -219 67z"/>
<path d="M1931 6413 c-52 -27 -76 -50 -201 -193 -36 -41 -87 -100 -115 -130
-27 -31 -64 -72 -80 -91 -17 -19 -105 -117 -195 -218 -266 -297 -271 -304
-272 -376 -1 -60 33 -112 90 -137 97 -43 171 1 357 213 17 19 138 156 270 304
132 149 264 297 292 329 91 104 114 184 72 253 -25 40 -85 73 -132 73 -18 0
-57 -12 -86 -27z"/>
<path d="M8185 5962 c-146 -48 -216 -222 -146 -361 40 -78 146 -141 235 -141
100 0 213 86 236 179 43 179 -73 333 -248 330 -31 -1 -66 -4 -77 -7z"/>
<path d="M4041 5633 c-39 -19 -70 -79 -71 -133 0 -46 49 -145 97 -195 21 -22
68 -83 106 -134 l67 -94 0 -662 c0 -404 4 -683 10 -716 18 -97 71 -144 158
-144 67 1 99 19 134 80 l23 40 3 578 3 577 304 0 305 0 0 -528 c0 -337 4 -550
11 -588 20 -109 66 -154 157 -154 61 0 109 30 137 85 19 39 20 60 20 715 0
660 0 676 -20 710 -12 19 -38 44 -60 55 -38 19 -64 20 -442 23 l-402 4 -42 56
c-22 31 -83 118 -135 192 -105 151 -164 216 -211 236 -44 19 -111 17 -152 -3z"/>
<path d="M952 5214 c-87 -43 -132 -120 -132 -229 0 -81 21 -127 84 -182 46
-40 125 -73 177 -73 49 0 139 40 180 81 73 73 87 194 35 296 -62 122 -214 169
-344 107z"/>
<path d="M2953 5146 c-24 -21 -44 -51 -52 -76 -9 -30 -12 -212 -11 -718 0
-661 1 -678 21 -719 24 -49 72 -83 129 -90 57 -8 121 32 152 94 l23 48 3 643
c2 417 -1 663 -8 700 -17 97 -66 143 -159 150 -56 4 -60 3 -98 -32z"/>
<path d="M6432 5159 c-18 -12 -43 -40 -55 -63 -22 -41 -22 -42 -25 -706 -2
-460 1 -679 8 -709 15 -60 43 -97 93 -122 77 -40 170 -1 208 87 19 41 19 73
17 732 l-3 688 -27 41 c-47 71 -148 95 -216 52z"/>
<path d="M7627 5137 c-43 -13 -83 -48 -100 -87 -9 -17 -13 -211 -15 -655 -4
-657 0 -730 38 -793 44 -72 164 -87 228 -28 59 53 57 30 60 664 l3 582 182 0
c234 1 371 13 420 36 42 20 77 80 77 133 0 56 -36 110 -88 134 -45 21 -61 22
-407 24 -257 1 -371 -2 -398 -10z"/>
<path d="M1154 4716 c-89 -39 -113 -152 -51 -241 18 -25 251 -291 373 -425 18
-19 110 -123 205 -230 188 -212 218 -240 284 -266 99 -37 205 34 205 139 0 39
-36 111 -78 159 -16 18 -71 80 -122 138 -397 448 -571 639 -613 674 -77 63
-140 79 -203 52z"/>
<path d="M463 3173 c-23 -4 -23 -7 -23 -159 l0 -154 880 0 880 0 0 154 0 153
-92 7 c-99 7 -1609 6 -1645 -1z"/>
<path d="M2843 3173 l-43 -4 0 -155 0 -154 315 0 315 0 0 154 0 153 -52 7
c-55 6 -461 5 -535 -1z"/>
<path d="M6164 3171 c-2 -2 -4 -73 -4 -158 l0 -153 320 0 320 0 0 154 c0 149
-1 154 -21 159 -25 7 -608 4 -615 -2z"/>
<path d="M440 2760 l0 -40 878 2 877 3 0 35 0 35 -877 3 -878 2 0 -40z"/>
<path d="M2800 2760 l0 -40 315 0 315 0 0 40 0 40 -315 0 -315 0 0 -40z"/>
<path d="M6162 2763 l3 -38 318 -3 317 -2 0 40 0 40 -321 0 -320 0 3 -37z"/>
<path d="M6345 2239 c-40 -19 -67 -77 -95 -202 -16 -67 -31 -135 -35 -150 -7
-26 -5 -28 15 -25 20 2 26 13 37 63 16 71 33 99 73 120 38 20 38 13 8 -89 -23
-79 -20 -106 12 -106 22 0 93 59 71 60 -8 0 -23 -8 -34 -17 -19 -18 -19 -17
-15 17 3 19 14 66 24 103 16 58 17 69 5 77 -16 9 -61 -9 -94 -38 -9 -8 -19
-13 -21 -11 -6 5 28 151 38 167 4 7 25 11 49 10 33 -2 42 1 45 15 3 13 -3 17
-30 16 -18 0 -42 -5 -53 -10z"/>
<path d="M7950 2236 c-40 -22 -66 -81 -94 -215 -24 -114 -25 -126 -11 -147 32
-49 122 -15 159 60 24 50 33 121 16 141 -16 20 -55 19 -87 -2 l-25 -17 7 45
c4 24 13 60 19 79 11 33 14 35 56 35 34 0 45 4 48 18 3 13 -3 17 -30 17 -18
-1 -44 -7 -58 -14z m28 -224 c6 -80 -54 -164 -93 -132 -19 15 -19 24 0 86 28
97 87 126 93 46z"/>
<path d="M8428 2234 c-46 -24 -70 -91 -123 -339 -11 -52 35 -57 89 -10 37 31
27 45 -11 15 -16 -13 -29 -17 -31 -11 -2 6 13 81 33 166 40 167 40 167 105
162 16 -1 26 4 28 16 3 13 -3 17 -30 17 -18 -1 -45 -8 -60 -16z"/>
<path d="M7557 2233 c-4 -3 -7 -14 -7 -24 0 -24 -16 -27 -100 -17 -99 12 -159
-2 -199 -47 -16 -19 -32 -47 -36 -64 -7 -34 8 -71 30 -71 18 0 19 23 3 49 -9
15 -9 26 0 45 15 34 48 53 105 61 57 9 57 12 22 -128 -34 -135 -43 -156 -71
-163 -13 -3 -24 -9 -24 -13 0 -11 159 -11 165 -1 4 6 -9 10 -29 10 -20 0 -36
4 -36 9 0 5 12 53 26 108 14 54 30 115 35 136 9 35 12 37 49 37 48 0 88 17 95
41 9 29 -10 51 -28 32z"/>
<path d="M6561 2207 c-25 -25 -2 -59 24 -37 8 7 15 18 15 25 0 18 -25 26 -39
12z"/>
<path d="M7781 2207 c-25 -25 -2 -59 24 -37 8 7 15 18 15 25 0 18 -25 26 -39
12z"/>
<path d="M5365 2189 c-57 -9 -108 -55 -103 -92 4 -31 40 -36 37 -5 -5 56 18
78 81 78 28 0 41 -14 22 -22 -5 -1 -44 -55 -87 -118 -123 -183 -139 -200 -186
-200 -41 0 -49 -9 -25 -29 31 -26 106 27 162 115 25 40 33 44 83 44 l44 0 -7
-41 c-4 -22 -7 -45 -9 -51 -3 -13 99 -22 108 -8 4 6 -6 10 -24 10 -28 0 -31 3
-31 30 0 30 26 237 35 278 6 25 -8 27 -100 11z m38 -149 c-8 -55 -8 -55 -46
-58 -21 -2 -37 1 -37 7 0 19 85 135 88 120 1 -8 -1 -39 -5 -69z"/>
<path d="M6106 2134 c-9 -8 -16 -24 -16 -34 0 -12 -8 -20 -25 -22 -14 -2 -25
-7 -25 -13 1 -5 8 -9 16 -7 19 4 18 -30 -2 -97 -31 -105 -3 -137 74 -81 49 35
57 59 10 30 -42 -25 -48 -25 -48 2 0 36 32 138 44 140 6 0 17 2 25 2 27 2 24
26 -4 26 -24 0 -25 2 -19 35 7 38 -4 45 -30 19z"/>
<path d="M7639 2073 c-40 -36 -40 -36 -34 -10 6 22 4 27 -11 27 -25 0 -84 -36
-84 -51 0 -7 8 -4 20 6 11 10 23 15 27 11 4 -4 -3 -46 -15 -94 -27 -104 -27
-102 -2 -102 14 0 22 11 30 43 23 87 32 107 66 137 33 29 83 45 56 18 -21 -21
-13 -31 13 -14 30 20 30 19 5 -79 -11 -43 -20 -84 -20 -92 0 -26 31 -25 73 3
25 16 36 29 28 32 -7 2 -18 -1 -24 -7 -33 -33 -34 -4 -6 94 26 88 22 109 -17
94 -22 -8 -29 -7 -36 6 -13 22 -24 19 -69 -22z"/>
<path d="M5572 2074 c-23 -14 -42 -29 -42 -35 0 -14 16 -11 30 6 26 31 27 2 4
-87 -13 -51 -24 -94 -24 -96 0 -2 10 -2 22 0 19 2 25 13 36 65 11 52 20 68 55
100 39 35 42 36 45 16 2 -12 -4 -45 -12 -74 -32 -107 -13 -142 50 -94 37 28
41 46 5 24 -32 -21 -35 -4 -12 73 28 97 28 118 -3 118 -13 0 -40 -11 -60 -25
-45 -31 -44 -30 -39 -1 7 35 -8 38 -55 10z"/>
<path d="M6746 2070 l-46 -30 0 25 c0 32 -30 33 -71 4 -35 -25 -39 -46 -4 -23
23 15 25 15 25 -1 0 -9 -6 -43 -14 -74 -29 -118 -29 -113 -4 -109 18 2 25 15
39 73 18 70 51 115 85 115 18 0 18 -13 -1 -74 -8 -27 -15 -66 -15 -88 0 -31 4
-38 19 -38 21 0 85 49 77 58 -3 2 -17 -3 -31 -12 -23 -15 -25 -15 -25 1 0 10
9 47 20 81 36 116 22 140 -54 92z"/>
<path d="M7045 2095 c-5 -2 -27 -6 -47 -10 -43 -7 -89 -48 -118 -106 -22 -42
-26 -99 -10 -115 8 -8 0 -19 -25 -38 -70 -54 -33 -124 61 -113 74 8 114 63
114 157 0 19 11 77 25 128 14 51 25 95 25 98 0 4 -10 4 -25 -1z m-35 -58 c0
-36 -29 -113 -50 -132 -10 -9 -27 -15 -37 -13 -40 8 -7 139 40 158 36 14 47
11 47 -13z m-30 -164 c-1 -86 -41 -146 -93 -141 -37 4 -57 30 -41 56 12 18
114 101 127 102 4 0 7 -8 7 -17z"/>
<path d="M8214 2091 c-50 -8 -85 -30 -117 -73 -50 -67 -60 -150 -20 -165 9 -4
33 3 55 16 38 21 38 21 38 1 0 -24 20 -26 59 -6 36 19 59 46 39 46 -8 0 -19
-5 -26 -12 -25 -25 -25 6 0 102 14 55 22 99 19 99 -3 -1 -25 -5 -47 -8z m-4
-42 c0 -29 -34 -123 -51 -140 -22 -22 -55 -25 -62 -5 -7 16 5 73 22 103 21 41
91 73 91 42z"/>
<path d="M5813 2073 c-32 -22 -29 -31 10 -29 30 1 33 -2 49 -49 9 -27 17 -78
18 -112 0 -56 -3 -66 -32 -98 -26 -30 -37 -36 -67 -35 -55 3 -61 1 -61 -15 0
-47 93 -22 148 40 93 105 164 315 107 315 -9 0 -14 -21 -17 -67 -3 -38 -10
-81 -17 -98 -13 -30 -13 -30 -32 44 -30 117 -54 141 -106 104z"/>
<path d="M6486 2067 c-17 -14 -25 -26 -19 -30 6 -4 16 0 23 8 23 28 27 6 9
-48 -10 -30 -20 -74 -21 -98 -3 -38 0 -44 17 -47 23 -3 84 42 73 54 -4 4 -14
1 -23 -6 -28 -23 -28 -2 -3 87 14 49 23 91 21 96 -9 15 -49 6 -77 -16z"/>
<path d="M4542 1908 c-17 -17 -15 -47 4 -55 23 -9 51 23 38 44 -14 22 -27 26
-42 11z"/>
<path d="M4664 1906 c-10 -26 0 -51 21 -51 16 0 20 7 20 30 0 33 -30 49 -41
21z"/>
<path d="M4794 1906 c-9 -24 0 -51 18 -54 19 -4 35 38 23 57 -9 16 -35 13 -41
-3z"/>
<path d="M4922 1908 c-17 -17 -15 -47 3 -54 21 -9 47 15 43 40 -4 24 -28 32
-46 14z"/>
<path d="M0 925 l0 -35 4735 0 4735 0 0 35 0 35 -4735 0 -4735 0 0 -35z"/>
<path d="M0 670 l0 -70 4735 0 4735 0 0 70 0 70 -4735 0 -4735 0 0 -70z"/>
</g>
</svg>
